<?xml version="1.0" standalone="no"?>
<!DOCTYPE svg PUBLIC "-//W3C//DTD SVG 20010904//EN"
 "http://www.w3.org/TR/2001/REC-SVG-20010904/DTD/svg10.dtd">
<svg version="1.0" xmlns="http://www.w3.org/2000/svg"
 width="741.000000pt" height="741.000000pt" viewBox="0 0 741.000000 741.000000"
 preserveAspectRatio="xMidYMid meet">
<metadata>
Created by potrace 1.11, written by Peter Selinger 2001-2013
</metadata>
<g transform="translate(0.000000,741.000000) scale(0.100000,-0.100000)"
fill="#000000" stroke="none">
<path d="M3530 7404 c-954 -53 -1826 -446 -2475 -1115 -580 -598 -920 -1305
-1031 -2144 -21 -160 -29 -553 -15 -726 55 -662 263 -1255 627 -1792 620 -914
1592 -1497 2688 -1612 169 -17 545 -20 716 -5 1000 91 1921 587 2557 1378 301
374 542 841 673 1302 291 1029 124 2133 -456 3023 -615 942 -1595 1548 -2704
1671 -137 16 -461 27 -580 20z m735 -244 c310 -39 297 -36 338 -90 l36 -48
-29 -58 c-20 -43 -43 -71 -84 -103 l-56 -44 0 -165 c0 -125 3 -169 14 -181 7
-9 18 -31 24 -48 12 -35 8 -39 -111 -128 -34 -25 -38 -33 -33 -58 8 -37 44
-97 59 -97 7 0 57 20 112 45 55 24 138 54 185 66 59 15 90 29 103 45 10 12 39
35 65 51 47 28 48 28 204 27 86 -1 167 -4 180 -7 15 -4 47 -42 92 -108 38 -57
84 -119 103 -140 19 -20 31 -43 28 -51 -4 -9 20 -36 68 -75 71 -58 78 -62 153
-73 107 -15 110 -16 125 -51 11 -28 9 -39 -20 -110 -18 -44 -30 -87 -27 -95 3
-9 0 -24 -7 -34 -10 -14 -11 -41 -4 -116 8 -86 16 -114 74 -253 62 -150 68
-160 152 -254 l87 -98 13 -90 c15 -103 25 -116 108 -126 48 -5 50 -4 71 29 24
38 23 42 -33 221 -21 66 -25 91 -16 100 15 15 24 2 127 -193 163 -308 226
-415 273 -465 33 -35 70 -98 126 -210 54 -110 95 -177 128 -214 27 -30 70 -86
96 -125 44 -66 48 -77 54 -151 6 -78 6 -81 -23 -119 -18 -23 -88 -78 -172
-134 -199 -132 -238 -166 -238 -205 0 -18 -4 -49 -9 -70 -7 -30 -2 -75 25
-205 19 -92 42 -194 50 -227 17 -65 14 -162 -11 -325 -12 -83 -15 -89 -116
-245 l-104 -160 -42 -160 c-24 -88 -46 -172 -49 -187 -3 -14 -45 -75 -93 -135
-86 -106 -88 -110 -120 -223 -25 -89 -41 -126 -72 -167 -23 -30 -142 -138
-279 -253 -228 -190 -241 -200 -302 -214 -90 -21 -113 -31 -202 -88 -101 -65
-390 -170 -751 -274 l-260 -75 -200 -14 c-353 -26 -377 -27 -577 -12 -182 13
-228 23 -228 46 0 3 24 21 54 40 34 22 57 46 65 65 6 17 18 39 25 49 13 17 17
17 43 4 25 -13 34 -13 83 2 l55 17 3 84 c2 68 -2 97 -19 145 -32 88 -46 105
-84 105 -31 0 -33 -3 -44 -47 -36 -149 -37 -150 -83 -156 -24 -4 -107 -27
-184 -52 l-142 -45 -11 -63 c-6 -35 -11 -70 -11 -78 -1 -41 -11 -41 -227 5
-246 52 -364 93 -382 132 -19 43 -3 51 96 46 66 -3 95 -8 115 -23 29 -20 50
-23 110 -13 33 6 39 12 62 63 48 108 65 209 67 410 l2 184 -118 148 -118 149
-146 1 -146 0 -48 76 -48 75 -72 -9 c-40 -4 -153 -6 -252 -5 -171 4 -183 3
-233 -20 -51 -22 -55 -26 -111 -133 l-57 -110 15 -97 c15 -90 19 -100 52 -130
50 -47 88 -107 105 -169 18 -70 18 -69 -13 -69 -63 0 -552 439 -707 635 -279
350 -272 338 -361 561 -80 198 -82 204 -63 221 14 13 21 14 30 5 7 -7 36 -12
65 -12 71 0 74 9 62 189 -12 192 -17 201 -169 291 -63 37 -147 85 -187 106
l-72 39 -45 182 c-58 229 -62 353 -14 353 4 0 47 -36 94 -80 48 -44 92 -80 99
-80 24 0 69 55 113 135 41 76 42 81 42 168 0 85 -2 92 -33 136 -27 38 -40 75
-71 210 -21 90 -40 169 -42 175 -12 30 57 104 187 201 120 89 141 109 188 180
39 60 57 101 73 163 11 45 29 93 39 107 26 32 133 112 190 141 74 37 133 129
187 288 41 125 43 135 38 220 l-5 88 53 112 c59 123 121 194 189 216 35 11 41
10 78 -15 l39 -28 0 -124 0 -124 34 -50 33 -49 24 35 c17 25 38 39 74 51 28 9
60 22 72 30 12 8 29 11 38 8 19 -8 16 -27 -14 -97 -19 -44 -19 -44 -80 -51
-88 -10 -111 -33 -112 -111 -1 -85 30 -164 91 -235 45 -52 55 -58 97 -63 40
-5 54 -1 83 18 76 52 146 75 229 75 l78 0 48 70 48 69 132 31 132 31 49 67
c41 55 60 96 103 222 29 85 59 165 68 178 l14 23 43 -35 42 -34 75 13 c102 18
127 31 135 70 3 18 4 88 2 156 -4 146 -25 209 -84 246 l-35 22 -55 -20 c-30
-12 -88 -43 -129 -70 -71 -48 -74 -52 -96 -116 -20 -61 -30 -75 -128 -169
-128 -124 -162 -139 -240 -106 -47 19 -50 19 -78 2 -16 -9 -45 -36 -64 -59
l-35 -42 -139 -24 c-77 -13 -140 -23 -141 -22 -5 5 54 264 64 282 6 11 32 41
59 66 44 42 57 49 158 74 107 27 112 30 170 87 64 61 81 67 160 49 19 -4 47 0
77 11 26 10 91 23 145 31 l98 13 47 69 c205 301 197 291 248 304 27 7 55 18
64 24 9 7 38 10 66 9 43 -3 51 -8 68 -37 20 -32 20 -33 -4 -131 -44 -182 -26
-264 58 -264 59 0 94 30 133 115 23 51 60 104 123 177 50 56 126 145 169 197
73 87 82 95 143 116 91 31 140 38 140 19 0 -20 2 -19 100 32 95 49 92 44 106
145 5 39 2 50 -18 72 -20 23 -35 27 -123 37 -93 11 -104 14 -155 52 -30 23
-56 42 -58 43 -1 1 3 14 9 29 10 22 17 25 43 21 17 -3 103 -14 191 -25z m2707
-2172 c9 -7 51 -106 92 -219 73 -199 76 -212 91 -355 8 -82 20 -184 26 -227 8
-59 7 -82 -2 -93 -9 -11 -23 1 -75 69 -35 45 -90 129 -123 187 l-59 105 -6
273 -6 272 23 0 c13 0 30 -6 39 -12z m-4892 -4150 c33 -7 57 -20 66 -33 10
-15 73 -232 74 -252 0 -2 -19 -3 -42 -3 -33 0 -75 17 -185 73 -147 74 -144 71
-147 133 -1 21 119 94 155 94 15 0 51 -5 79 -12z"/>
<path d="M4760 5370 l-115 -6 -208 -87 c-134 -56 -221 -87 -245 -87 -20 0
-109 24 -197 54 l-160 53 -185 -17 c-241 -22 -274 -34 -392 -146 -47 -46 -97
-86 -110 -89 -13 -3 -135 -9 -273 -14 -226 -8 -258 -12 -334 -35 -78 -24 -90
-32 -199 -128 -117 -104 -160 -159 -278 -360 l-39 -66 -100 -7 c-123 -8 -202
-32 -324 -99 l-95 -51 -59 -125 c-160 -338 -337 -744 -337 -773 0 -18 5 -81
11 -142 11 -105 13 -111 45 -142 18 -17 36 -42 39 -55 4 -15 28 -37 64 -60 52
-32 68 -52 136 -159 80 -126 266 -525 306 -659 23 -75 26 -81 103 -215 68
-119 104 -154 201 -195 69 -28 82 -30 200 -30 l126 0 77 58 c42 32 100 74 128
94 l50 37 69 -16 c56 -12 75 -13 108 -3 22 6 81 15 131 20 71 6 110 15 177 44
74 31 102 37 192 43 94 5 107 4 113 -10 5 -15 23 -17 123 -17 64 0 179 7 256
15 133 13 141 13 170 -5 17 -11 64 -24 105 -31 208 -32 348 -68 494 -129 l149
-61 186 7 185 7 100 44 c54 23 104 49 110 57 42 51 253 332 264 350 7 11 34
69 61 127 l49 107 72 -20 c82 -22 79 -23 168 57 47 43 60 49 108 53 42 3 57 9
68 27 9 13 36 38 62 57 56 40 83 91 118 218 25 94 25 98 17 335 l-8 240 -45
135 c-87 259 -113 310 -218 434 -76 89 -115 124 -195 179 l-100 68 -7 57 c-3
31 -9 122 -13 202 l-8 145 -73 146 -73 147 -66 23 c-63 23 -71 30 -188 163
-75 85 -137 146 -161 158 -42 21 -213 89 -218 86 -2 -1 -55 -4 -118 -8z m-87
-506 c32 -5 48 -12 52 -24 4 -12 29 -25 73 -39 37 -11 75 -26 84 -33 10 -7 69
-96 132 -197 112 -180 115 -185 121 -257 7 -69 4 -85 -55 -296 -34 -123 -70
-241 -80 -263 -30 -66 -102 -148 -199 -225 -126 -101 -184 -189 -240 -366 -34
-107 -43 -154 -51 -259 -5 -71 -20 -178 -31 -237 l-22 -107 -92 -118 c-90
-117 -92 -118 -136 -121 -58 -4 -134 44 -159 99 -16 38 -16 41 56 391 41 194
110 525 155 734 l82 381 -43 166 c-23 91 -45 169 -49 174 -3 4 -32 26 -65 47
l-58 40 -52 -27 c-29 -16 -67 -48 -88 -76 -35 -45 -38 -57 -59 -187 -12 -76
-25 -224 -30 -329 -10 -241 -34 -370 -89 -501 l-43 -99 -9 -215 c-6 -171 -5
-236 6 -320 15 -103 15 -105 -7 -138 -26 -37 -28 -38 -129 -47 l-78 -7 -49 51
c-91 94 -115 174 -166 556 -29 214 -29 329 -1 555 l12 95 -45 93 -46 92 -41 0
c-37 0 -50 -7 -97 -49 -50 -46 -55 -56 -76 -133 -18 -69 -22 -120 -27 -300
l-5 -216 34 -144 c19 -79 37 -177 41 -218 9 -109 9 -337 -1 -354 -4 -8 -27
-28 -50 -45 -41 -30 -47 -31 -141 -31 l-98 0 -66 68 c-55 56 -74 85 -114 172
-46 103 -47 108 -71 315 -13 116 -27 291 -31 390 l-7 181 -53 104 c-28 58 -52
109 -52 113 0 4 21 45 46 89 l47 82 -23 102 c-19 86 -22 122 -18 231 5 125 6
131 50 233 47 111 47 110 143 148 l50 20 78 -46 c101 -59 179 -157 261 -328
51 -106 62 -123 102 -148 36 -23 51 -27 79 -22 33 7 38 13 80 103 42 90 45
101 45 182 1 47 4 129 9 183 7 89 11 101 47 157 l39 61 50 0 c28 0 80 5 117
10 l68 10 109 -65 c131 -78 179 -90 290 -77 67 8 84 14 103 36 13 14 88 66
168 115 140 87 147 90 206 90 34 1 82 -2 107 -5z m-2591 -936 c23 -11 45 -33
57 -56 25 -48 39 -60 144 -116 48 -26 87 -51 85 -54 -2 -4 -17 -34 -34 -67
-18 -33 -55 -123 -84 -200 l-52 -139 12 -194 c11 -179 15 -209 61 -390 54
-213 70 -346 50 -419 -15 -56 -74 -93 -147 -93 -46 0 -53 3 -96 48 -53 55 -62
78 -218 570 -132 417 -137 430 -207 509 -94 105 -115 141 -107 188 24 144 92
270 177 329 29 19 78 53 109 75 l58 39 77 -5 c46 -3 93 -14 115 -25z m3395
-181 c86 -53 114 -78 186 -163 109 -129 136 -190 144 -329 5 -99 5 -100 -24
-138 -21 -28 -47 -46 -94 -65 -49 -19 -87 -46 -162 -116 l-99 -91 -105 -210
c-76 -152 -121 -228 -160 -275 -50 -58 -62 -66 -127 -87 -51 -16 -95 -23 -159
-23 -82 0 -90 2 -136 32 -47 31 -50 36 -53 83 -5 64 26 131 82 176 27 22 53
58 79 113 22 45 78 140 124 212 l84 131 12 284 13 284 47 78 c40 67 57 85 117
122 41 27 81 45 99 45 20 0 65 -21 132 -63z"/>
<path d="M1045 2914 c-71 -23 -161 -48 -198 -55 -61 -11 -71 -16 -93 -48 -13
-20 -24 -45 -24 -56 0 -11 21 -85 45 -165 40 -127 45 -156 45 -237 l0 -93 -52
-29 c-29 -17 -59 -34 -67 -39 -16 -9 -29 -170 -17 -215 9 -37 47 -49 133 -41
l74 7 38 -37 38 -37 64 12 c89 17 110 42 102 128 l-6 62 -74 61 c-70 58 -92
91 -80 122 3 7 46 48 96 90 l91 77 0 -63 c0 -35 3 -93 7 -131 l6 -67 41 -12
c27 -7 61 -31 102 -71 l61 -59 47 61 47 61 0 87 c0 127 -26 302 -48 319 -16
12 -43 19 -103 27 -13 2 -14 22 -12 124 3 112 2 124 -21 170 -22 42 -63 76
-107 88 -3 1 -63 -17 -135 -41z"/>
<path d="M323 6275 c-9 -25 2 -27 22 -5 17 18 17 20 1 20 -9 0 -19 -7 -23 -15z"/>
<path d="M380 1024 c0 -16 3 -53 7 -82 6 -51 7 -53 32 -47 14 4 30 10 34 14
14 14 -14 88 -44 117 l-29 28 0 -30z"/>
</g>
</svg>
