<?xml version="1.0" standalone="no"?>
<!DOCTYPE svg PUBLIC "-//W3C//DTD SVG 20010904//EN"
 "http://www.w3.org/TR/2001/REC-SVG-20010904/DTD/svg10.dtd">
<svg version="1.0" xmlns="http://www.w3.org/2000/svg"
 width="1624.000000pt" height="1624.000000pt" viewBox="0 0 1624.000000 1624.000000"
 preserveAspectRatio="xMidYMid meet">
<metadata>
Created by potrace 1.11, written by Peter Selinger 2001-2013
</metadata>
<g transform="translate(0.000000,1624.000000) scale(0.100000,-0.100000)"
fill="#000000" stroke="none">
<path d="M7040 15900 c-118 -6 -192 -16 -311 -42 -148 -33 -163 -39 -315 -119
-193 -102 -256 -156 -312 -268 -30 -60 -42 -101 -57 -194 l-18 -118 32 -115
33 -115 -55 -97 c-80 -141 -106 -196 -127 -265 -84 -274 -100 -508 -50 -729
19 -86 51 -154 162 -342 50 -84 279 -285 326 -286 36 0 35 -1 22 55 -6 26 -6
91 2 190 11 150 11 150 59 245 26 53 63 122 83 155 34 56 40 61 138 108 l103
49 68 -13 c78 -14 107 -40 107 -96 0 -26 -19 -60 -87 -156 -49 -67 -110 -154
-137 -194 l-49 -72 23 -36 22 -36 87 7 c47 4 91 11 98 16 6 5 44 8 85 6 l73
-3 3 -36 c3 -31 -21 -81 -146 -315 -82 -154 -182 -342 -222 -419 -56 -106
-117 -199 -254 -384 -153 -207 -196 -257 -279 -331 -132 -116 -319 -232 -452
-281 -58 -22 -109 -39 -115 -39 -24 0 -5 80 54 227 110 273 146 448 162 784 6
125 4 167 -16 295 -20 132 -33 178 -112 399 -87 241 -92 254 -180 387 -50 76
-97 138 -103 138 -7 0 -26 3 -42 6 -27 5 -36 -2 -124 -103 -101 -114 -189
-254 -294 -463 -260 -518 -570 -1275 -678 -1655 -204 -712 -257 -919 -326
-1260 -78 -388 -104 -537 -157 -920 -31 -229 -37 -306 -49 -640 -10 -263 -11
-437 -5 -565 5 -102 12 -311 15 -465 5 -232 9 -286 23 -312 18 -36 29 -40 54
-20 13 10 18 54 28 252 12 261 39 525 70 702 20 111 79 310 159 533 133 375
146 405 280 650 73 135 149 273 167 308 19 35 86 127 150 205 121 148 551 598
594 622 14 8 75 56 135 109 75 65 148 116 229 161 66 37 149 91 186 120 54 44
75 55 118 61 48 6 58 12 98 59 48 55 124 97 279 150 206 71 239 85 270 115 26
25 45 33 101 41 38 6 144 36 235 67 l166 57 71 130 c39 71 143 277 231 458
157 319 162 333 235 575 85 281 87 288 125 512 27 155 28 178 24 390 -4 255
-22 385 -57 440 -13 20 -27 50 -30 66 -5 21 -39 63 -109 131 -94 92 -109 102
-192 135 -86 34 -99 36 -284 48 -107 6 -239 9 -296 5 -92 -7 -103 -5 -109 11
-12 31 34 165 77 222 49 64 128 132 154 132 11 0 69 -24 129 -54 77 -38 117
-64 137 -90 20 -26 35 -36 56 -36 16 0 31 -6 34 -13 2 -7 28 -25 56 -40 46
-25 57 -27 113 -21 61 6 65 9 123 68 33 33 85 97 115 142 30 44 101 129 157
188 l102 108 60 5 c36 3 66 1 73 -5 7 -5 76 -23 153 -38 130 -26 144 -31 199
-71 42 -31 68 -43 93 -43 28 0 47 -10 92 -48 31 -27 92 -73 136 -102 44 -30
118 -91 165 -136 99 -96 154 -184 293 -475 l84 -174 72 -350 c75 -368 82 -419
135 -1025 19 -209 28 -404 35 -733 6 -273 14 -453 20 -461 29 -35 154 -108
193 -114 29 -3 97 -36 203 -96 88 -50 178 -95 200 -101 52 -13 431 -267 437
-293 3 -12 21 -25 44 -32 22 -7 65 -38 101 -71 42 -40 69 -59 87 -59 19 0 31
-10 51 -44 15 -26 38 -49 56 -56 16 -7 36 -25 44 -39 7 -15 41 -50 74 -79 34
-30 61 -61 61 -71 0 -10 33 -48 73 -84 113 -104 146 -139 175 -183 14 -23 39
-49 54 -59 16 -9 40 -35 55 -58 14 -23 42 -60 63 -82 20 -22 61 -85 90 -140
30 -55 74 -134 99 -175 68 -112 257 -519 302 -650 82 -236 139 -444 178 -646
42 -217 45 -260 80 -942 5 -95 11 -175 13 -178 3 -2 16 0 30 5 21 8 30 24 49
88 l24 78 3 690 c4 798 5 771 -74 1515 -8 80 -53 377 -99 660 -80 489 -88 530
-164 805 -44 160 -128 470 -186 690 -134 502 -227 765 -383 1085 -60 124 -154
297 -208 385 -119 192 -314 450 -346 459 -50 13 -84 6 -110 -21 -72 -78 -199
-266 -236 -350 -48 -106 -114 -342 -139 -493 -23 -133 -13 -338 23 -513 21
-105 30 -129 77 -205 111 -181 157 -271 197 -389 35 -104 40 -132 38 -190 -3
-62 -5 -68 -26 -71 -47 -7 -198 113 -287 228 -63 82 -167 320 -210 480 -19 74
-69 321 -110 548 -72 398 -75 418 -75 568 0 85 4 164 10 174 16 30 64 59 121
74 54 14 54 14 84 -15 28 -26 34 -28 68 -18 l37 10 0 69 c0 127 -78 264 -247
433 -115 114 -118 118 -115 156 3 34 9 41 42 56 37 17 38 17 78 -10 23 -15 46
-24 52 -20 6 3 45 -16 87 -44 97 -65 108 -60 98 43 -6 60 -17 90 -67 188 -54
105 -68 124 -142 190 -134 122 -195 171 -321 258 -76 53 -171 133 -260 220
-261 253 -374 348 -536 455 -135 89 -182 113 -365 188 -231 95 -202 89 -634
142 -172 22 -257 26 -530 29 -179 2 -395 0 -480 -4z m398 -825 c-15 -28 -100
-85 -128 -85 -33 0 -31 18 4 39 19 12 41 33 50 46 12 19 25 25 52 25 34 0 34
-1 22 -25z"/>
<path d="M3934 14447 c-75 -40 -143 -100 -188 -166 -75 -109 -202 -357 -231
-449 -105 -334 -152 -509 -229 -858 -52 -232 -87 -495 -132 -994 -21 -232 -26
-355 -31 -785 -8 -652 9 -970 93 -1728 16 -145 22 -233 16 -240 -5 -7 -13 -26
-16 -43 -6 -28 -4 -33 22 -43 27 -11 30 -19 61 -162 71 -331 172 -609 221
-609 10 0 22 5 25 11 9 14 21 222 40 679 9 212 18 394 21 405 2 11 13 99 24
195 23 204 126 816 203 1210 82 414 197 800 407 1360 31 83 252 614 350 840
93 215 359 685 477 843 42 56 77 106 79 112 3 6 -4 35 -14 65 -18 53 -22 57
-138 135 -105 71 -145 91 -331 163 l-212 82 -238 0 c-226 -1 -240 -2 -279 -23z"/>
<path d="M3255 14241 c-170 -82 -319 -173 -400 -244 -95 -84 -245 -235 -245
-247 0 -5 -23 -28 -52 -51 -70 -55 -159 -174 -213 -284 -24 -49 -81 -189 -126
-310 -92 -249 -89 -234 -144 -810 -36 -381 -32 -614 18 -1090 20 -187 43 -369
51 -405 8 -36 24 -119 36 -185 35 -196 48 -247 146 -545 74 -226 115 -332 197
-510 136 -293 135 -291 113 -325 -14 -21 -15 -29 -5 -41 10 -13 14 -13 29 1
23 21 28 14 115 -151 66 -126 239 -411 292 -481 30 -41 38 -41 58 -4 13 27 13
45 1 168 -8 76 -18 185 -22 243 -3 58 -13 116 -20 130 -12 22 -62 416 -93 730
-6 58 -20 388 -33 734 -20 565 -21 661 -10 955 14 374 57 1029 73 1098 5 26
34 185 64 353 29 168 72 373 94 456 22 82 56 213 75 290 24 94 55 184 92 265
86 191 104 239 104 281 0 37 -1 38 -37 38 -25 0 -79 -20 -158 -59z"/>
<path d="M11719 14249 c-152 -28 -308 -89 -486 -193 l-153 -88 0 -46 c0 -71
37 -135 140 -242 50 -52 102 -111 114 -130 13 -19 109 -189 214 -376 162 -288
201 -366 251 -502 210 -561 299 -853 425 -1391 50 -208 59 -318 31 -341 -22
-18 -19 -25 19 -38 32 -12 36 -18 50 -80 8 -37 26 -152 40 -257 14 -104 30
-203 36 -220 5 -16 23 -154 39 -305 74 -671 102 -972 111 -1191 6 -129 11
-241 11 -249 1 -8 1 -28 0 -45 -1 -16 2 -61 8 -100 5 -38 13 -125 17 -192 4
-68 10 -123 13 -123 25 1 52 81 156 472 32 119 86 454 149 928 29 213 53 687
62 1210 4 254 9 350 21 396 15 60 15 63 -6 90 -20 28 -21 47 -31 394 -11 401
-13 425 -71 880 -58 464 -100 678 -218 1139 -78 303 -204 559 -295 597 -64 28
-499 30 -647 3z"/>
<path d="M12801 14116 c-18 -22 -3 -129 30 -214 28 -70 94 -323 158 -602 77
-338 166 -1134 181 -1625 9 -316 9 -332 -9 -381 -19 -48 -19 -53 -3 -75 15
-21 16 -50 13 -229 -9 -598 -21 -963 -35 -1120 -8 -96 -27 -323 -41 -505 -18
-229 -32 -350 -45 -395 -10 -36 -37 -154 -59 -263 -32 -154 -40 -210 -35 -252
6 -52 7 -53 31 -42 36 16 332 436 372 527 18 41 52 109 77 150 72 125 177 352
269 584 75 189 95 255 155 500 37 154 75 315 84 356 27 129 86 586 86 670 0
57 6 94 21 132 24 59 24 -8 -1 660 -15 384 -47 659 -104 888 -59 233 -101 331
-232 534 -232 357 -452 547 -791 680 -105 41 -106 41 -122 22z"/>
<path d="M1915 12963 c-24 -6 -161 -163 -254 -293 -339 -475 -473 -755 -535
-1125 -43 -257 -51 -433 -37 -788 l12 -312 85 -430 c78 -397 90 -448 161 -660
42 -126 87 -255 100 -285 14 -30 45 -109 69 -175 73 -195 243 -560 482 -1035
123 -245 287 -587 364 -760 77 -173 151 -340 165 -370 53 -117 131 -318 146
-380 9 -36 26 -105 37 -155 32 -138 73 -245 95 -245 40 0 129 167 164 310 11
47 39 198 62 335 l41 250 -5 345 -5 345 -45 200 c-25 110 -60 270 -77 355 -17
85 -43 182 -57 215 -14 33 -103 241 -198 461 -153 355 -173 407 -168 442 5 36
0 48 -54 128 -108 162 -124 191 -143 263 -11 40 -45 129 -76 199 -57 131 -87
233 -212 722 -108 419 -137 606 -152 980 -5 140 -12 295 -14 344 -7 124 51
760 99 1089 6 39 2 41 -50 30z"/>
<path d="M14227 12793 c-16 -27 -18 -112 -3 -186 19 -97 44 -495 53 -834 l6
-241 -26 -25 c-27 -25 -37 -79 -17 -92 22 -13 -1 -293 -41 -510 -21 -115 -52
-286 -68 -380 -35 -203 -121 -490 -281 -940 -69 -194 -237 -564 -482 -1065
l-130 -265 -63 -255 c-60 -245 -64 -268 -100 -605 l-37 -350 12 -250 c14 -304
42 -496 111 -759 54 -209 98 -313 137 -323 13 -3 27 -2 31 3 8 9 42 151 136
577 27 121 65 258 92 330 25 67 61 167 80 221 19 54 108 261 198 460 89 199
180 401 200 449 23 53 55 107 80 135 118 131 468 944 624 1448 127 411 220
765 232 879 5 55 23 177 39 272 29 165 30 182 30 485 0 172 -5 352 -10 400 -7
64 -7 93 1 106 16 26 -96 302 -202 497 -45 83 -102 191 -126 240 -101 201
-395 585 -449 585 -12 0 -25 -3 -27 -7z"/>
<path d="M984 12033 c-9 -15 -32 -51 -50 -79 -29 -43 -60 -131 -40 -112 12 11
116 212 112 216 -3 2 -12 -9 -22 -25z"/>
<path d="M7880 11294 c-954 -53 -1826 -446 -2475 -1115 -580 -598 -920 -1305
-1031 -2144 -21 -160 -29 -553 -15 -726 55 -662 263 -1255 627 -1792 620 -914
1592 -1497 2688 -1612 169 -17 545 -20 716 -5 1000 91 1921 587 2557 1378 301
374 542 841 673 1302 291 1029 124 2133 -456 3023 -615 942 -1595 1548 -2704
1671 -137 16 -461 27 -580 20z m700 -239 c69 -8 173 -22 231 -31 l106 -16 36
-48 36 -48 -28 -58 c-21 -44 -42 -70 -84 -103 l-57 -43 0 -165 c0 -146 2 -167
19 -191 39 -54 33 -71 -49 -134 -41 -32 -76 -64 -78 -73 -5 -20 37 -105 54
-112 8 -3 60 15 116 41 57 25 141 55 188 67 59 15 90 29 103 45 10 12 39 35
65 51 47 28 48 28 204 27 86 -1 167 -4 180 -7 15 -4 47 -42 92 -108 38 -57 84
-119 103 -140 19 -21 31 -43 28 -52 -4 -9 19 -34 69 -75 73 -58 79 -60 162
-73 129 -19 143 -44 94 -163 -18 -42 -29 -84 -26 -92 4 -9 1 -23 -5 -31 -8 -9
-10 -43 -5 -112 6 -92 10 -110 72 -258 63 -153 69 -162 154 -257 l87 -99 13
-88 c15 -102 25 -114 107 -125 49 -6 51 -5 71 28 24 39 22 49 -34 220 -22 69
-25 91 -16 100 17 17 22 9 163 -257 165 -309 185 -342 239 -400 32 -35 71
-100 125 -210 57 -115 94 -177 133 -220 29 -33 73 -89 96 -125 39 -59 43 -73
49 -145 6 -78 6 -81 -23 -119 -18 -23 -91 -80 -182 -141 -223 -150 -221 -148
-233 -236 -10 -68 -8 -88 26 -254 20 -99 42 -200 49 -225 13 -49 8 -161 -15
-310 -12 -83 -15 -89 -118 -248 -100 -154 -106 -168 -132 -271 -61 -247 -64
-255 -155 -368 -81 -101 -85 -107 -117 -220 -26 -91 -43 -129 -74 -170 -23
-31 -141 -138 -278 -253 l-239 -199 -83 -21 c-60 -15 -107 -35 -178 -79 -136
-84 -463 -200 -890 -316 -114 -31 -163 -39 -330 -51 -346 -25 -383 -26 -578
-11 -241 18 -264 30 -170 87 37 22 57 42 65 64 7 18 18 40 25 50 12 17 16 17
43 3 26 -13 35 -13 84 2 l55 17 3 84 c2 67 -2 96 -19 145 -33 89 -46 105 -84
105 l-33 0 -24 -97 -24 -98 -44 -8 c-25 -4 -109 -28 -186 -53 l-142 -44 -11
-63 c-6 -35 -11 -70 -11 -78 -1 -41 -11 -41 -226 5 -243 51 -365 93 -383 132
-19 43 -3 51 96 46 66 -3 95 -8 115 -23 29 -20 50 -23 110 -13 33 6 39 12 62
63 48 108 65 209 67 410 l2 184 -118 148 -118 149 -146 1 -146 0 -48 76 -48
75 -72 -9 c-40 -4 -153 -6 -252 -5 -171 4 -183 3 -233 -20 -51 -22 -55 -26
-111 -133 l-57 -110 15 -98 c15 -92 18 -100 53 -130 49 -43 86 -104 104 -168
18 -70 18 -69 -13 -69 -21 0 -68 33 -178 123 -266 217 -411 361 -568 561 -251
319 -233 290 -322 512 -80 198 -82 204 -63 221 14 13 21 14 30 5 7 -7 36 -12
65 -12 71 0 74 9 62 190 -13 193 -17 201 -169 290 -63 37 -147 85 -187 106
l-71 39 -46 176 c-38 143 -46 192 -46 262 0 48 2 87 4 87 2 0 11 3 19 6 10 3
46 -23 102 -75 48 -45 93 -81 100 -81 22 0 71 59 114 137 39 73 41 80 41 166
0 85 -2 92 -33 136 -27 38 -40 75 -71 210 -21 90 -40 169 -42 175 -12 30 57
104 187 201 117 87 142 110 185 175 27 41 53 89 58 105 5 17 17 60 28 98 18
62 24 71 84 121 36 30 92 68 124 85 86 46 141 128 197 296 42 125 44 134 39
219 l-5 90 53 110 c59 123 122 194 189 216 35 11 41 10 78 -15 l39 -28 0 -124
0 -124 34 -50 33 -49 24 35 c17 25 38 39 74 51 28 9 60 22 72 30 12 8 29 11
38 8 19 -8 16 -27 -14 -97 -19 -44 -19 -44 -80 -51 -88 -10 -111 -33 -112
-111 -1 -85 30 -164 91 -235 45 -52 55 -58 97 -63 40 -5 54 -1 83 18 76 52
146 75 229 75 l78 0 48 70 c26 38 55 72 64 74 9 3 68 16 132 31 l115 26 50 67
c41 55 60 95 103 222 29 85 59 165 67 178 l15 23 43 -35 42 -34 78 13 c87 15
123 34 132 69 3 13 4 82 2 152 -4 152 -24 213 -84 251 l-35 22 -55 -20 c-30
-12 -88 -43 -128 -70 -67 -44 -75 -54 -91 -101 -25 -78 -31 -86 -140 -190
-123 -117 -157 -132 -234 -100 -47 19 -50 19 -77 2 -16 -9 -48 -38 -70 -64
-29 -32 -49 -46 -67 -46 -14 0 -74 -9 -133 -21 -58 -11 -108 -19 -109 -17 -6
6 51 262 63 283 6 11 32 41 59 66 44 42 57 49 158 74 107 27 112 30 170 87 64
61 81 67 160 49 19 -4 47 0 77 11 26 10 91 23 145 31 l98 13 47 69 c205 301
197 291 248 304 27 7 55 18 64 24 9 7 38 10 66 9 43 -3 51 -8 68 -37 20 -32
20 -33 -4 -131 -44 -182 -26 -264 58 -264 59 0 94 30 133 115 23 51 60 104
123 177 50 56 126 145 169 197 73 87 82 95 143 116 91 31 140 38 140 19 0 -20
2 -19 100 32 l88 45 12 69 c18 109 4 124 -135 140 -100 12 -122 22 -214 97 -2
1 2 14 9 28 11 21 19 24 44 20 17 -3 87 -12 156 -20z m2748 -2177 c5 -7 44
-106 86 -220 66 -180 77 -220 86 -310 6 -57 18 -159 26 -227 12 -102 13 -127
2 -137 -11 -11 -25 3 -80 76 -36 49 -91 133 -121 187 l-55 98 -6 273 -6 272
29 0 c16 0 33 -6 39 -12z m-4898 -4150 c34 -8 57 -20 67 -34 11 -17 73 -230
73 -250 0 -2 -19 -4 -42 -4 -33 0 -75 17 -185 73 -147 74 -144 71 -147 133 -1
21 119 94 155 94 15 0 51 -5 79 -12z"/>
<path d="M9110 9260 l-115 -6 -208 -87 c-134 -56 -221 -87 -245 -87 -20 0
-109 24 -197 54 l-160 53 -185 -17 c-242 -22 -275 -34 -391 -146 -47 -45 -96
-85 -110 -88 -13 -4 -136 -10 -274 -15 -226 -8 -258 -12 -334 -35 -79 -25 -91
-32 -200 -129 -110 -98 -121 -111 -216 -264 l-100 -160 -100 -7 c-124 -9 -203
-33 -324 -100 l-94 -51 -60 -125 c-157 -333 -337 -744 -337 -772 0 -17 5 -82
12 -145 11 -103 14 -117 36 -131 13 -8 32 -33 43 -54 13 -25 39 -51 74 -73 95
-61 217 -278 395 -704 26 -64 51 -132 55 -151 11 -52 153 -288 191 -316 18
-14 63 -38 101 -54 63 -28 77 -29 200 -30 72 0 134 4 137 9 3 5 59 47 124 94
l119 86 68 -16 c56 -13 75 -13 109 -3 23 7 79 15 125 18 69 4 101 12 173 43
78 34 101 39 198 45 96 6 110 5 116 -10 5 -13 23 -16 113 -16 58 0 175 7 259
15 149 14 154 14 180 -5 15 -11 59 -24 101 -31 206 -31 348 -68 495 -129 l149
-61 186 7 185 7 100 44 c54 23 104 49 110 57 42 51 253 332 264 350 7 11 34
69 61 127 l49 107 72 -20 c82 -22 79 -23 168 57 47 43 60 49 108 53 42 3 57 9
68 27 9 13 36 38 62 57 56 40 84 91 117 218 25 94 25 98 18 335 l-8 240 -45
135 c-87 260 -112 309 -221 436 -80 93 -117 127 -196 180 l-98 65 -6 72 c-4
40 -10 131 -13 202 l-7 130 -72 145 -73 145 -66 25 c-63 24 -72 32 -189 164
-75 84 -137 146 -161 158 -42 21 -213 89 -218 86 -2 -1 -55 -4 -118 -8z m-28
-532 c13 -14 49 -33 81 -42 32 -10 66 -25 76 -35 10 -10 67 -96 126 -192 96
-153 110 -181 120 -241 11 -67 10 -72 -37 -246 -86 -314 -93 -333 -151 -408
-29 -38 -96 -105 -150 -149 -130 -108 -181 -184 -236 -360 -33 -106 -42 -154
-50 -256 -5 -70 -19 -177 -32 -237 l-22 -111 -92 -118 c-90 -117 -92 -118
-136 -121 -59 -4 -134 44 -159 101 -16 35 -16 45 -4 100 8 34 50 238 94 452
45 215 108 516 142 670 l61 280 -32 125 c-60 231 -55 220 -123 264 l-61 40
-51 -28 c-30 -16 -66 -47 -88 -76 -35 -46 -39 -58 -59 -187 -11 -76 -25 -221
-29 -323 -11 -251 -30 -359 -87 -495 l-46 -110 -8 -218 c-7 -172 -6 -239 5
-320 14 -97 14 -103 -5 -134 -23 -37 -29 -39 -131 -48 l-78 -7 -49 51 c-91 94
-118 181 -166 550 -30 229 -30 260 -9 489 l17 175 -44 89 -43 88 -42 0 c-37 0
-50 -7 -96 -49 -53 -48 -55 -53 -79 -148 -22 -90 -24 -117 -24 -323 1 -218 2
-228 32 -345 17 -66 34 -151 37 -190 9 -106 9 -341 0 -358 -5 -9 -28 -29 -51
-46 -41 -30 -47 -31 -141 -31 l-98 0 -66 68 c-55 56 -74 85 -114 172 -46 103
-47 108 -71 315 -13 116 -27 291 -31 390 l-7 180 -53 105 c-29 58 -52 108 -52
112 0 4 21 45 46 90 l46 83 -22 101 c-18 82 -21 124 -18 225 3 120 5 128 48
236 l45 111 65 26 c36 14 70 26 75 28 6 2 47 -17 90 -42 69 -38 88 -56 143
-128 34 -47 87 -137 118 -201 49 -103 60 -120 100 -145 36 -23 51 -27 79 -22
33 7 38 13 80 103 43 92 45 100 46 192 0 53 4 135 8 183 7 77 12 93 47 147 38
59 40 61 84 61 25 0 78 5 119 10 l74 10 108 -65 c126 -77 179 -91 291 -77 62
8 78 15 108 42 19 18 96 71 170 117 l135 83 102 -4 c93 -3 104 -6 125 -28z
m-2659 -906 c27 -11 49 -32 72 -68 28 -44 47 -59 130 -103 53 -29 95 -55 93
-59 -2 -4 -22 -45 -44 -92 -23 -47 -61 -137 -84 -200 l-42 -114 12 -191 c10
-174 15 -207 60 -386 53 -210 67 -314 55 -404 -6 -54 -9 -58 -53 -86 -35 -22
-58 -29 -97 -29 -47 0 -54 3 -97 48 -53 55 -60 73 -202 522 -149 470 -151 474
-221 553 -98 112 -117 145 -109 192 24 147 93 272 183 334 31 20 80 54 109 74
51 35 54 36 125 31 39 -3 89 -13 110 -22z m3405 -185 c84 -54 115 -81 189
-168 113 -133 142 -205 143 -350 0 -67 -3 -79 -28 -113 -20 -27 -46 -45 -93
-64 -49 -19 -87 -46 -162 -116 l-99 -91 -105 -210 c-132 -264 -181 -327 -281
-361 -51 -18 -90 -23 -161 -24 -91 0 -97 1 -142 33 -44 30 -48 35 -51 82 -5
64 26 131 82 176 27 22 53 58 79 113 22 45 78 140 124 212 l84 131 12 284 12
284 47 78 c40 67 57 84 117 122 95 60 111 59 233 -18z"/>
<path d="M5395 6804 c-71 -24 -161 -48 -198 -55 -61 -11 -71 -16 -93 -48 -13
-20 -24 -45 -24 -56 0 -11 20 -83 44 -160 35 -114 44 -158 48 -237 l4 -96 -67
-36 c-55 -30 -68 -41 -73 -67 -8 -43 -7 -182 2 -195 18 -27 53 -35 128 -28
l75 7 38 -37 38 -37 64 12 c89 17 110 42 102 128 l-6 62 -73 60 c-113 94 -112
103 9 208 50 44 93 75 94 68 1 -7 5 -65 8 -129 l7 -118 41 -11 c28 -8 62 -32
104 -72 l61 -60 46 63 46 62 0 92 c0 131 -25 295 -47 312 -16 12 -43 19 -103
27 -13 2 -15 22 -12 124 3 113 1 125 -22 170 -21 42 -60 75 -106 88 -3 1 -63
-17 -135 -41z"/>
<path d="M831 11153 c-26 -24 -41 -64 -115 -303 -177 -577 -171 -554 -211
-880 -41 -346 -43 -443 -15 -777 32 -368 61 -545 120 -735 28 -90 53 -181 56
-203 12 -76 422 -923 654 -1349 84 -153 158 -300 166 -327 8 -26 46 -114 84
-194 39 -81 82 -186 96 -234 15 -47 48 -129 74 -181 26 -52 51 -111 55 -130 4
-19 44 -172 90 -340 66 -243 91 -355 124 -555 22 -137 54 -335 71 -439 17
-103 33 -192 36 -197 2 -4 19 -1 37 7 25 12 47 42 102 142 84 152 119 252 185
518 67 269 95 508 87 744 -5 139 -13 204 -51 410 -33 174 -57 272 -82 340 -20
52 -94 246 -164 430 -150 392 -190 482 -561 1229 -313 629 -304 607 -493 1232
-86 284 -103 353 -167 685 -74 386 -89 515 -105 899 -10 241 -16 260 -73 208z"/>
<path d="M15280 10842 c0 -4 -7 -39 -15 -77 -8 -39 -35 -214 -60 -390 -57
-402 -93 -547 -264 -1055 -196 -588 -231 -670 -531 -1280 -292 -592 -537
-1146 -572 -1289 -11 -47 -41 -132 -67 -190 -38 -84 -58 -152 -99 -331 -107
-469 -112 -520 -112 -1033 0 -362 0 -366 34 -603 19 -132 47 -282 61 -334 15
-52 33 -119 41 -147 14 -52 32 -66 51 -40 5 6 31 116 58 242 26 127 56 262 65
300 45 179 173 604 222 735 30 80 65 174 78 210 27 75 191 442 254 569 24 47
118 217 209 377 183 321 207 367 262 499 21 50 53 109 72 133 40 48 235 446
376 763 76 170 109 260 160 439 90 307 92 316 127 560 l32 215 -4 375 -5 375
-38 165 c-22 95 -79 288 -136 456 -130 383 -121 364 -164 364 -19 0 -35 -3
-35 -8z"/>
<path d="M286 8723 c-3 -32 -9 -177 -12 -323 -5 -235 -3 -297 20 -550 85 -927
128 -1225 222 -1540 151 -503 263 -784 384 -961 34 -49 69 -113 79 -141 10
-29 61 -127 113 -218 52 -91 178 -313 278 -495 101 -181 199 -355 218 -385 19
-30 79 -161 132 -290 l98 -235 33 -3 34 -3 -3 333 c-3 324 -4 341 -43 623 -74
545 -113 757 -175 948 -139 432 -219 667 -247 722 -17 33 -98 205 -182 381
-83 177 -162 339 -175 360 -189 320 -345 627 -488 964 -63 148 -77 194 -135
445 -36 154 -71 309 -78 345 -12 66 -21 80 -50 80 -13 0 -18 -14 -23 -57z"/>
<path d="M15771 8409 c-34 -76 -209 -510 -242 -599 -22 -58 -44 -112 -50 -120
-5 -8 -30 -57 -55 -109 -25 -52 -63 -115 -84 -141 -32 -39 -42 -59 -48 -107
-7 -49 -20 -77 -89 -183 -45 -71 -179 -319 -307 -571 -124 -245 -242 -472
-262 -505 -36 -60 -114 -226 -268 -574 -101 -227 -225 -599 -261 -782 -13 -68
-51 -312 -85 -543 l-61 -420 10 -239 c9 -233 19 -289 40 -235 70 179 111 287
153 399 27 74 57 144 67 155 28 32 113 168 716 1155 327 536 357 588 430 760
82 192 87 208 184 530 53 173 71 254 126 565 50 282 95 658 110 930 23 400 23
621 2 642 -15 15 -17 14 -26 -8z"/>
<path d="M13 8350 c0 -25 2 -35 4 -22 2 12 2 32 0 45 -2 12 -4 2 -4 -23z"/>
<path d="M3694 5881 c-188 -113 -393 -246 -457 -294 -105 -80 -118 -94 -153
-160 -36 -68 -37 -76 -42 -193 -3 -67 -2 -133 1 -146 17 -65 205 -320 246
-333 10 -3 42 -41 71 -84 33 -52 62 -83 81 -91 16 -7 60 -49 98 -94 38 -44
106 -117 149 -160 44 -43 78 -85 75 -92 -2 -7 8 -19 24 -28 44 -23 458 -566
450 -590 -5 -13 -47 -13 -202 2 -66 7 -166 12 -223 12 l-102 0 -257 141 -256
142 -73 -6 c-40 -4 -96 -16 -126 -28 -29 -12 -151 -56 -272 -100 -237 -85
-315 -129 -342 -194 -7 -19 -19 -100 -25 -182 -10 -144 -12 -151 -54 -243 -25
-52 -47 -113 -51 -135 -5 -37 -2 -46 40 -100 25 -33 87 -104 138 -158 l93 -99
144 -12 c127 -10 145 -14 161 -33 10 -13 28 -80 45 -162 15 -78 30 -141 32
-141 3 0 92 -11 199 -25 178 -23 197 -24 224 -10 26 13 30 21 30 54 0 35 -6
45 -59 93 -33 29 -62 65 -66 78 -4 17 10 68 42 157 l48 131 153 122 c178 140
223 166 276 156 20 -4 36 -11 36 -16 0 -5 25 -28 55 -52 l55 -43 0 -115 c-1
-87 -5 -128 -20 -170 -10 -30 -27 -99 -36 -153 l-18 -98 -115 -80 c-64 -43
-128 -89 -143 -101 l-27 -23 23 -28 c23 -28 23 -28 172 -34 130 -5 160 -3 239
16 79 19 96 27 135 65 25 23 68 59 96 79 29 21 55 44 58 52 3 8 17 93 31 189
21 140 25 201 22 312 -2 77 -7 149 -11 161 -11 30 21 49 122 70 l82 17 27 -26
c16 -14 60 -36 98 -48 39 -13 110 -40 160 -61 78 -34 91 -37 104 -24 30 29 14
119 -50 288 -33 87 -66 168 -73 180 -8 12 -46 123 -86 247 -39 124 -116 362
-170 530 -54 168 -110 351 -126 408 -24 91 -25 105 -13 118 11 11 53 16 165
20 137 5 233 22 258 44 16 15 -17 85 -66 140 -27 30 -101 129 -165 220 -105
149 -134 201 -295 530 -164 333 -204 401 -233 399 -5 -1 -164 -94 -351 -208z"/>
<path d="M11867 5796 c-131 -240 -394 -650 -537 -836 -200 -261 -194 -251
-177 -292 l15 -35 92 -6 c51 -4 121 -7 154 -7 66 -1 107 -23 120 -67 5 -15
-44 -153 -163 -460 -94 -241 -233 -602 -310 -803 l-139 -365 29 -37 30 -37 72
25 c40 13 81 28 92 33 11 5 79 24 150 41 72 18 140 37 152 42 33 16 91 1 110
-29 15 -23 15 -32 2 -97 -10 -53 -12 -109 -8 -221 4 -82 7 -209 8 -280 l1
-131 53 -51 c36 -36 66 -55 97 -63 30 -8 55 -24 75 -48 l31 -35 162 -5 162 -5
41 27 c22 15 39 31 37 36 -2 4 -43 39 -92 77 -82 63 -91 73 -112 130 -23 62
-35 158 -50 404 l-6 106 57 61 c76 82 100 83 211 10 44 -28 105 -65 138 -82
l58 -32 99 -189 c82 -158 99 -198 99 -235 0 -43 -3 -47 -55 -88 -50 -39 -55
-47 -55 -81 0 -36 2 -39 33 -45 94 -16 248 -26 301 -19 l60 8 64 160 c35 88
73 170 86 183 21 22 24 22 64 8 23 -8 79 -18 124 -22 l83 -6 118 126 c159 171
156 165 122 307 -31 128 -34 183 -16 316 l12 91 -30 49 c-24 38 -62 72 -165
147 -143 102 -164 113 -399 207 -144 58 -150 59 -215 53 -62 -7 -76 -13 -261
-130 l-196 -123 -95 -10 c-53 -6 -160 -8 -240 -4 -139 6 -212 -2 -329 -34 -22
-6 -23 -4 -17 23 16 63 37 89 387 474 53 58 104 120 113 139 10 18 47 61 83
95 36 33 141 142 232 240 91 99 193 199 225 223 33 24 104 95 158 158 l98 115
15 97 c20 135 19 174 -10 244 -48 119 -76 143 -560 471 -183 124 -366 229
-397 228 -7 -1 -48 -65 -91 -144z"/>
<path d="M5895 3923 c-27 -4 -44 -26 -161 -211 -73 -114 -342 -538 -600 -942
-516 -812 -541 -858 -569 -1034 -16 -101 -16 -107 5 -210 14 -66 38 -142 66
-204 38 -84 50 -102 92 -132 27 -19 56 -42 65 -52 31 -31 201 -108 262 -118
34 -6 115 -8 190 -4 109 6 132 10 143 25 7 10 48 37 91 61 61 34 91 58 136
113 31 39 70 95 85 125 58 115 396 941 505 1235 34 94 95 251 135 350 170 426
230 593 230 643 0 45 -3 52 -34 75 -18 14 -87 47 -152 73 -66 27 -192 85 -282
131 -90 46 -166 82 -170 81 -4 0 -20 -3 -37 -5z"/>
<path d="M9675 3705 c-154 -69 -297 -131 -317 -140 l-38 -15 0 -80 c0 -57 6
-94 21 -132 81 -204 192 -511 209 -577 11 -44 36 -117 56 -163 104 -242 254
-624 264 -675 37 -178 308 -834 361 -873 11 -8 39 -30 62 -49 23 -18 67 -49
97 -69 52 -33 62 -36 195 -48 118 -11 151 -10 208 2 38 8 78 14 90 14 13 0 30
9 40 20 9 11 23 20 31 20 18 0 152 106 198 158 29 32 45 66 72 153 35 110 36
116 36 278 l0 166 -86 160 c-87 162 -375 665 -862 1505 l-269 465 -44 2 c-37
2 -89 -18 -324 -122z"/>
<path d="M6673 3538 c-39 -41 -50 -69 -253 -658 -412 -1195 -511 -1507 -533
-1673 l-13 -104 37 -122 c28 -92 45 -131 67 -154 16 -18 33 -46 37 -63 14 -70
326 -232 449 -233 27 -1 94 6 149 15 94 15 105 19 181 72 45 30 112 85 149
121 57 55 71 76 86 126 47 154 76 315 136 755 89 645 136 967 196 1345 47 296
50 324 39 377 -8 37 -18 59 -29 62 -93 28 -642 176 -653 176 -2 0 -22 -19 -45
-42z"/>
<path d="M8753 3437 c-228 -50 -287 -66 -305 -84 l-22 -22 43 -378 c23 -208
80 -727 126 -1153 l84 -775 51 -155 c47 -141 56 -159 98 -203 26 -26 89 -76
142 -112 87 -60 103 -66 194 -85 54 -11 137 -20 187 -20 l88 0 128 77 c156 93
154 91 215 181 79 117 88 155 88 362 l0 178 -184 623 c-159 541 -394 1290
-483 1544 l-28 80 -70 2 c-54 1 -135 -12 -352 -60z"/>
<path d="M7550 3358 c-5 -13 -18 -117 -30 -233 -12 -115 -52 -493 -90 -840
-109 -993 -122 -1127 -121 -1280 1 -135 3 -144 44 -275 l42 -135 107 -106 107
-106 103 -27 c96 -26 110 -28 230 -21 71 4 130 11 133 15 3 5 31 16 63 25 31
9 71 29 87 45 17 15 42 30 56 33 67 16 194 219 222 357 15 70 14 94 -9 390
-21 266 -154 2110 -154 2132 0 4 -18 17 -40 28 -37 19 -58 20 -390 20 l-350 0
-10 -22z"/>
<path d="M14240 3125 c-7 -9 -11 -18 -8 -20 3 -3 11 1 18 10 7 9 11 18 8 20
-3 3 -11 -1 -18 -10z"/>
<path d="M12745 1714 c-92 -69 -113 -90 -62 -63 40 22 167 120 167 129 0 13 8
18 -105 -66z"/>
<path d="M12400 340 c-13 -8 -13 -10 2 -10 9 0 20 5 23 10 8 13 -5 13 -25 0z"/>
</g>
</svg>
